<svg width="152" height="61" viewBox="0 0 152 61" fill="none" xmlns="http://www.w3.org/2000/svg">
<path d="M37.8722 10.0785C35.9289 9.58348 34.2015 9.8626 32.5689 10.7263C31.2787 11.4109 29.999 12.1324 28.7508 12.8908C28.2242 13.212 27.8029 13.2015 27.2657 12.9171C25.5541 12.006 23.7636 11.2319 22.0994 10.2418C20.5089 9.2991 19.1081 9.65721 17.5492 10.484C18.5446 11.274 19.4767 12.0113 20.4036 12.7486C21.3305 13.4859 22.2574 14.2232 23.1895 14.9604C22.0678 15.9663 20.9829 16.8563 19.9981 17.8464C17.6598 20.2058 15.9535 22.9548 15.3005 26.2516C14.3789 30.9123 16.3327 35.1412 20.5195 37.6901C23.9479 39.7756 27.7133 40.1179 31.5947 39.744C38.0091 39.1278 43.5809 36.4631 48.5998 32.5607C49.3581 31.9708 49.8058 31.955 50.5273 32.5975C54.5561 36.1892 55.8621 40.7709 55.3565 45.9531C54.7509 52.1252 51.0908 55.9486 45.5453 58.1763C41.3217 59.8721 36.8768 60.3513 32.3688 60.3566C22.2047 60.3724 12.0406 60.3566 1.87125 60.3777C1.10236 60.3777 0.849574 60.1986 0.849574 59.3876C0.865373 40.2338 0.85484 21.0747 0.823242 1.91037C0.823242 1.07829 1.06023 0.862366 1.88178 0.862366C11.7457 0.893964 21.6149 0.836034 31.4788 0.920296C36.4819 0.962427 41.3585 1.76292 45.7296 4.44877C49.4793 6.75017 51.8649 10.0101 52.3863 14.4443C53.0077 19.716 51.391 24.2135 47.3095 27.6577C41.843 32.271 35.4812 34.6514 28.3084 34.6725C26.1861 34.6777 24.1743 34.0932 22.4733 32.7134C20.6985 31.2757 19.8612 29.4746 20.3984 27.1837C21.1672 23.9028 23.2475 21.5592 26.0228 19.4527C26.381 22.1648 26.7127 24.6874 27.0603 27.2838C28.5981 26.3832 29.6145 25.3352 29.604 23.4446C29.5934 21.5381 29.8515 19.6317 29.9621 17.7253C29.999 17.0933 30.257 16.7036 30.8205 16.4034C32.0634 15.7504 33.2799 15.05 34.4859 14.339C36.1132 13.3805 37.2507 12.0165 37.8669 10.0838L37.8722 10.0785Z" fill="#0A5FB3"/>
<path d="M68.8043 14.6703H73.5527C74.3806 14.6703 74.7946 14.1103 74.7946 12.7953C74.7946 11.4073 74.3319 10.7742 73.4553 10.7742H68.8043V14.6703ZM68.8043 4.37V7.58428H73.431C74.1858 7.58428 74.5267 7.14597 74.5267 5.97714C74.5267 4.80831 74.1858 4.37 73.431 4.37H68.8043ZM75.1112 9.06967C78.3498 9.21577 79.056 10.7742 79.056 13.4284C79.056 16.8375 77.3271 18.0064 74.5754 18.0064H64.8839V1.03396H74.5024C77.8871 1.03396 78.7394 2.44629 78.7394 5.10051C78.7394 7.46253 78.155 8.82616 75.1112 9.06967Z" fill="#0A5FB3"/>
<path d="M88.7148 0.619995C94.145 0.619995 96.9697 2.44629 96.9697 9.33753C96.9697 16.3262 94.145 18.3473 88.7148 18.3473C83.2603 18.3473 80.4599 16.3262 80.4599 9.33753C80.4599 2.44629 83.2603 0.619995 88.7148 0.619995ZM88.7148 14.7677C92.1482 14.7677 92.7814 14.0859 92.7814 9.38623C92.7814 4.75961 92.1482 4.22389 88.7148 4.22389C85.2814 4.22389 84.6482 4.75961 84.6482 9.38623C84.6482 14.0859 85.2814 14.7677 88.7148 14.7677Z" fill="#0A5FB3"/>
<path d="M106.379 0.619995C111.809 0.619995 114.633 2.44629 114.633 9.33753C114.633 16.3262 111.809 18.3473 106.379 18.3473C100.924 18.3473 98.1237 16.3262 98.1237 9.33753C98.1237 2.44629 100.924 0.619995 106.379 0.619995ZM106.379 14.7677C109.812 14.7677 110.445 14.0859 110.445 9.38623C110.445 4.75961 109.812 4.22389 106.379 4.22389C102.945 4.22389 102.312 4.75961 102.312 9.38623C102.312 14.0859 102.945 14.7677 106.379 14.7677Z" fill="#0A5FB3"/>
<path d="M120.511 1.03396V18.0064H116.591V1.03396H120.511ZM131.64 18.0064H126.916C123.847 12.3814 121.437 9.43493 120.536 9.04532C121.461 8.29045 123.823 5.41707 126.502 1.03396H131.177C128.352 5.41707 126.185 8.12 125.43 8.82616C126.161 9.38623 128.596 12.3814 131.64 18.0064Z" fill="#0A5FB3"/>
<path d="M66.7589 22.3408C67.9277 23.8749 69.5105 26.0421 71.1177 28.3554C72.7492 26.0664 74.2345 23.9236 75.1599 22.3408H80.0056C78.1306 25.2141 75.5495 28.9641 73.017 32.3976V39.3132H69.0966V32.4219C66.418 28.6719 63.3742 24.5323 61.5479 22.3408H66.7589Z" fill="#0A5FB3"/>
<path d="M87.0264 21.9268C92.4566 21.9268 95.2813 23.7531 95.2813 30.6443C95.2813 37.633 92.4566 39.6541 87.0264 39.6541C81.5719 39.6541 78.7716 37.633 78.7716 30.6443C78.7716 23.7531 81.5719 21.9268 87.0264 21.9268ZM87.0264 36.0745C90.4599 36.0745 91.093 35.3927 91.093 30.693C91.093 26.0664 90.4599 25.5307 87.0264 25.5307C83.593 25.5307 82.9599 26.0664 82.9599 30.693C82.9599 35.3927 83.593 36.0745 87.0264 36.0745Z" fill="#0A5FB3"/>
<path d="M107.637 22.3408H111.581V34.5648C111.581 38.6557 108.732 39.6541 104.301 39.6541C99.8444 39.6541 97.0197 38.6557 97.0197 34.5648V22.3408H100.989V32.5924C100.989 34.857 101.038 36.0015 104.301 36.0015C107.564 36.0015 107.637 34.8327 107.637 32.5924V22.3408Z" fill="#0A5FB3"/>
<path d="M118.086 25.6768V30.0356H122.445C123.297 30.0356 123.93 29.4268 123.93 27.9171C123.93 26.383 123.37 25.6768 122.493 25.6768H118.086ZM124.052 32.0323C125.196 32.4463 126.462 33.9804 129.628 39.3132H124.734C122.104 34.6866 120.886 33.2499 119.839 33.2499H118.086V39.3132H114.165V22.3408H123.638C127.12 22.3408 128.289 24.508 128.289 27.3083C128.289 29.7434 127.266 31.8619 124.052 32.0323Z" fill="#0A5FB3"/>
<path d="M72.53 60.62H68.5852V47.081H62.9115V43.6476H78.1793V47.081H72.53V60.62Z" fill="#0A5FB3"/>
<path d="M82.9011 46.9836V51.3424H87.2599C88.1121 51.3424 88.7452 50.7336 88.7452 49.2239C88.7452 47.6898 88.1852 46.9836 87.3086 46.9836H82.9011ZM88.867 53.3391C90.0115 53.7531 91.2777 55.2872 94.4433 60.62H89.5488C86.9189 55.9934 85.7014 54.5567 84.6543 54.5567H82.9011V60.62H78.9806V43.6476H88.453C91.9352 43.6476 93.104 45.8148 93.104 48.6151C93.104 51.0502 92.0813 53.1687 88.867 53.3391Z" fill="#0A5FB3"/>
<path d="M106.562 60.62C106.148 59.6216 105.637 58.3067 105.125 56.87H98.1368C97.6985 58.2823 97.3332 59.5729 97.041 60.62H92.8527C94.265 55.8716 96.9193 48.4203 98.8673 43.6476H104.931C106.538 48.956 109.07 56.1882 110.897 60.62H106.562ZM101.984 47.0567H101.351C100.694 48.8343 99.9144 51.1232 99.1352 53.4853H104.005C103.226 51.1719 102.496 48.8586 101.984 47.0567Z" fill="#0A5FB3"/>
<path d="M108.132 43.6476H112.466C113.854 46.9349 115.899 52.7304 116.947 56.4073C118.335 52.8521 120.088 47.2028 121.11 43.6476H125.299C123.911 48.4203 121.184 55.8716 119.187 60.62H114.171C112.588 55.3846 110.08 48.1038 108.132 43.6476Z" fill="#0A5FB3"/>
<path d="M125.599 43.6476H138.261V47.081H129.519V50.1249H135.777V53.4853H129.519V57.1865H138.261V60.62H125.599V43.6476Z" fill="#0A5FB3"/>
<path d="M139.624 43.6476H143.545V57.1622H151.191V60.62H139.624V43.6476Z" fill="#0A5FB3"/>
</svg>
