<svg width="152" height="61" viewBox="0 0 152 61" fill="none" xmlns="http://www.w3.org/2000/svg">
<path d="M37.8373 9.58397C35.8829 9.08611 34.1457 9.36682 32.5038 10.2354C31.2061 10.924 29.9191 11.6496 28.6638 12.4123C28.1342 12.7354 27.7105 12.7248 27.1702 12.4388C25.4489 11.5225 23.6481 10.7439 21.9744 9.74816C20.3749 8.8001 18.966 9.16026 17.3982 9.9918C18.3993 10.7863 19.3367 11.5278 20.2689 12.2693C21.2011 13.0108 22.1333 13.7523 23.0708 14.4938C21.9426 15.5054 20.8515 16.4005 19.8611 17.3963C17.5095 19.7691 15.7934 22.5338 15.1366 25.8494C14.2098 30.5368 16.1748 34.7899 20.3855 37.3534C23.8335 39.4508 27.6204 39.795 31.5239 39.419C37.975 38.7993 43.5787 36.1193 48.6262 32.1946C49.3889 31.6014 49.8391 31.5855 50.5647 32.2317C54.6165 35.8439 55.93 40.4518 55.4216 45.6635C54.8125 51.871 51.1314 55.7162 45.5543 57.9566C41.3065 59.6621 36.8363 60.1441 32.3025 60.1493C22.0803 60.1652 11.8581 60.1493 1.63066 60.1705C0.857373 60.1705 0.603142 59.9905 0.603142 59.1748C0.619032 39.9115 0.608439 20.643 0.57666 1.36915C0.57666 0.53231 0.815001 0.315155 1.64125 0.315155C11.5615 0.346934 21.4871 0.288673 31.4074 0.373416C36.439 0.415788 41.3436 1.22085 45.7396 3.92205C49.5107 6.23661 51.91 9.51512 52.4344 13.9747C53.0594 19.2765 51.4333 23.7997 47.3286 27.2636C41.8308 31.9033 35.4327 34.2973 28.2189 34.3185C26.0844 34.3238 24.0612 33.7359 22.3504 32.3482C20.5655 30.9023 19.7234 29.0909 20.2636 26.7869C21.0369 23.4872 23.129 21.1303 25.9203 19.0117C26.2804 21.7394 26.6141 24.2764 26.9637 26.8875C28.5102 25.9818 29.5324 24.9278 29.5219 23.0264C29.5113 21.1091 29.7708 19.1918 29.882 17.2744C29.9191 16.6389 30.1786 16.2469 30.7453 15.945C31.9953 15.2883 33.2188 14.5838 34.4317 13.8688C36.0683 12.9049 37.2123 11.5331 37.832 9.58927L37.8373 9.58397Z" fill="white"/>
<path d="M68.9459 14.1306H73.7214C74.5541 14.1306 74.9704 13.5673 74.9704 12.2449C74.9704 10.849 74.5051 10.2122 73.6235 10.2122H68.9459V14.1306ZM68.9459 3.77143V7.00408H73.599C74.3582 7.00408 74.701 6.56327 74.701 5.38776C74.701 4.21224 74.3582 3.77143 73.599 3.77143H68.9459ZM75.2888 8.49796C78.5459 8.6449 79.2561 10.2122 79.2561 12.8816C79.2561 16.3102 77.5173 17.4857 74.75 17.4857H65.0031V0.416327H74.6765C78.0806 0.416327 78.9377 1.83673 78.9377 4.50612C78.9377 6.88163 78.35 8.25306 75.2888 8.49796Z" fill="white"/>
<path d="M88.9701 0C94.4314 0 97.2722 1.83673 97.2722 8.76735C97.2722 15.7959 94.4314 17.8286 88.9701 17.8286C83.4844 17.8286 80.6681 15.7959 80.6681 8.76735C80.6681 1.83673 83.4844 0 88.9701 0ZM88.9701 14.2286C92.4232 14.2286 93.0599 13.5429 93.0599 8.81633C93.0599 4.16327 92.4232 3.62449 88.9701 3.62449C85.5171 3.62449 84.8803 4.16327 84.8803 8.81633C84.8803 13.5429 85.5171 14.2286 88.9701 14.2286Z" fill="white"/>
<path d="M106.735 0C112.196 0 115.037 1.83673 115.037 8.76735C115.037 15.7959 112.196 17.8286 106.735 17.8286C101.249 17.8286 98.4328 15.7959 98.4328 8.76735C98.4328 1.83673 101.249 0 106.735 0ZM106.735 14.2286C110.188 14.2286 110.825 13.5429 110.825 8.81633C110.825 4.16327 110.188 3.62449 106.735 3.62449C103.282 3.62449 102.645 4.16327 102.645 8.81633C102.645 13.5429 103.282 14.2286 106.735 14.2286Z" fill="white"/>
<path d="M120.948 0.416327V17.4857H117.006V0.416327H120.948ZM132.14 17.4857H127.389C124.304 11.8286 121.879 8.86531 120.973 8.47347C121.904 7.71429 124.279 4.82449 126.973 0.416327H131.675C128.834 4.82449 126.655 7.54286 125.895 8.25306C126.63 8.81633 129.079 11.8286 132.14 17.4857Z" fill="white"/>
<path d="M66.8888 21.4163C68.0643 22.9592 69.6561 25.1388 71.2724 27.4653C72.9133 25.1633 74.4071 23.0082 75.3377 21.4163H80.2112C78.3255 24.3061 75.7296 28.0776 73.1826 31.5306V38.4857H69.2398V31.5551C66.5459 27.7837 63.4847 23.6204 61.6479 21.4163H66.8888Z" fill="white"/>
<path d="M87.2721 21C92.7333 21 95.5742 22.8367 95.5742 29.7673C95.5742 36.7959 92.7333 38.8286 87.2721 38.8286C81.7864 38.8286 78.9701 36.7959 78.9701 29.7673C78.9701 22.8367 81.7864 21 87.2721 21ZM87.2721 35.2286C90.7252 35.2286 91.3619 34.5429 91.3619 29.8163C91.3619 25.1633 90.7252 24.6245 87.2721 24.6245C83.8191 24.6245 83.1823 25.1633 83.1823 29.8163C83.1823 34.5429 83.8191 35.2286 87.2721 35.2286Z" fill="white"/>
<path d="M108 21.4163H111.967V33.7102C111.967 37.8245 109.102 38.8286 104.645 38.8286C100.163 38.8286 97.3225 37.8245 97.3225 33.7102V21.4163H101.314V31.7265C101.314 34.0041 101.363 35.1551 104.645 35.1551C107.927 35.1551 108 33.9796 108 31.7265V21.4163Z" fill="white"/>
<path d="M118.509 24.7714V29.1551H122.893C123.75 29.1551 124.387 28.5429 124.387 27.0245C124.387 25.4816 123.823 24.7714 122.942 24.7714H118.509ZM124.509 31.1633C125.66 31.5796 126.934 33.1224 130.117 38.4857H125.195C122.55 33.8327 121.325 32.3878 120.272 32.3878H118.509V38.4857H114.566V21.4163H124.093C127.595 21.4163 128.77 23.5959 128.77 26.4122C128.77 28.8612 127.742 30.9918 124.509 31.1633Z" fill="white"/>
<path d="M72.6928 60.4857H68.7255V46.8694H63.0194V43.4163H78.3745V46.8694H72.6928V60.4857Z" fill="white"/>
<path d="M83.1232 46.7714V51.1551H87.5069C88.364 51.1551 89.0008 50.5429 89.0008 49.0245C89.0008 47.4816 88.4375 46.7714 87.5559 46.7714H83.1232ZM89.1232 53.1633C90.2742 53.5796 91.5477 55.1224 94.7314 60.4857H89.8089C87.164 55.8327 85.9395 54.3878 84.8865 54.3878H83.1232V60.4857H79.1803V43.4163H88.7069C92.2089 43.4163 93.3844 45.5959 93.3844 48.4122C93.3844 50.8612 92.3559 52.9918 89.1232 53.1633Z" fill="white"/>
<path d="M106.919 60.4857C106.503 59.4816 105.989 58.1592 105.475 56.7143H98.446C98.0052 58.1347 97.6378 59.4327 97.3439 60.4857H93.1317C94.5521 55.7102 97.2215 48.2163 99.1807 43.4163H105.279C106.895 48.7551 109.442 56.0286 111.279 60.4857H106.919ZM102.315 46.8449H101.679C101.017 48.6327 100.234 50.9347 99.4501 53.3102H104.348C103.564 50.9837 102.83 48.6571 102.315 46.8449Z" fill="white"/>
<path d="M108.498 43.4163H112.857C114.253 46.7225 116.31 52.551 117.363 56.249C118.759 52.6735 120.522 46.9918 121.551 43.4163H125.763C124.367 48.2163 121.624 55.7102 119.616 60.4857H114.571C112.98 55.2204 110.457 47.898 108.498 43.4163Z" fill="white"/>
<path d="M126.065 43.4163H138.8V46.8694H130.008V49.9306H136.302V53.3102H130.008V57.0327H138.8V60.4857H126.065V43.4163Z" fill="white"/>
<path d="M140.17 43.4163H144.113V57.0082H151.803V60.4857H140.17V43.4163Z" fill="white"/>
</svg>
